<svg viewBox="0 0 760 414" xmlns="http://www.w3.org/2000/svg" role="img" aria-label="가속도에 따른 필요 유지력과 툴별 유지력">
  <defs>
    <marker id="arr-d05-holding-force" viewBox="0 0 10 10" refX="9" refY="5" markerWidth="7" markerHeight="7" orient="auto-start-reverse"><path d="M0 0 L10 5 L0 10 z" style="fill:var(--text-faint)"/></marker>
    <marker id="arr-d05-holding-force-hi" viewBox="0 0 10 10" refX="9" refY="5" markerWidth="7" markerHeight="7" orient="auto-start-reverse"><path d="M0 0 L10 5 L0 10 z" style="fill:var(--accent)"/></marker>
  </defs>
  <path class="ln" d="M70.0 340.0 L540.0 340.0" stroke-width="0.6" stroke-dasharray="5 4"/>
  <text class="tag" x="64.0" y="344.0" text-anchor="end">0</text>
  <path class="ln" d="M70.0 285.5 L540.0 285.5" stroke-width="0.6" stroke-dasharray="5 4"/>
  <text class="tag" x="64.0" y="289.5" text-anchor="end">20</text>
  <path class="ln" d="M70.0 230.9 L540.0 230.9" stroke-width="0.6" stroke-dasharray="5 4"/>
  <text class="tag" x="64.0" y="234.9" text-anchor="end">40</text>
  <path class="ln" d="M70.0 176.4 L540.0 176.4" stroke-width="0.6" stroke-dasharray="5 4"/>
  <text class="tag" x="64.0" y="180.4" text-anchor="end">60</text>
  <path class="ln" d="M70.0 121.8 L540.0 121.8" stroke-width="0.6" stroke-dasharray="5 4"/>
  <text class="tag" x="64.0" y="125.8" text-anchor="end">80</text>
  <path class="ln" d="M70.0 67.3 L540.0 67.3" stroke-width="0.6" stroke-dasharray="5 4"/>
  <text class="tag" x="64.0" y="71.3" text-anchor="end">100</text>
  <path class="ln" d="M70.0 40.0 L70.0 340.0" stroke-width="0.6" stroke-dasharray="5 4"/>
  <text class="tag" x="70.0" y="356.0" text-anchor="middle">0</text>
  <path class="ln" d="M187.5 40.0 L187.5 340.0" stroke-width="0.6" stroke-dasharray="5 4"/>
  <text class="tag" x="187.5" y="356.0" text-anchor="middle">20</text>
  <path class="ln" d="M305.0 40.0 L305.0 340.0" stroke-width="0.6" stroke-dasharray="5 4"/>
  <text class="tag" x="305.0" y="356.0" text-anchor="middle">40</text>
  <path class="ln" d="M422.5 40.0 L422.5 340.0" stroke-width="0.6" stroke-dasharray="5 4"/>
  <text class="tag" x="422.5" y="356.0" text-anchor="middle">60</text>
  <path class="ln" d="M540.0 40.0 L540.0 340.0" stroke-width="0.6" stroke-dasharray="5 4"/>
  <text class="tag" x="540.0" y="356.0" text-anchor="middle">80</text>
  <path class="ln" d="M70.0 340.0 L540.0 340.0" stroke-width="1.2"/>
  <path class="ln" d="M70.0 40.0 L70.0 340.0" stroke-width="1.2"/>
  <text class="sub" x="305.0" y="374.0" text-anchor="middle">이동판 가속도 a [m/s²] (중력과 같은 방향으로 더해지는 최악의 경우)</text>
  <text class="sub" x="70.0" y="30.0" text-anchor="start">힘 [N]</text>
  <path d="M70.0 337.3 L540.0 315.5" style="stroke:var(--accent);fill:none;fill-opacity:1" stroke-width="2.4" stroke-linejoin="round" stroke-linecap="round"/>
  <text x="457.8" y="333.3" text-anchor="middle" font-size="11" style="fill:var(--accent)">m = 0.05 kg</text>
  <path d="M70.0 329.3 L540.0 242.0" style="stroke:var(--danger);fill:none;fill-opacity:1" stroke-width="2.4" stroke-linejoin="round" stroke-linecap="round"/>
  <text x="457.8" y="250.3" text-anchor="middle" font-size="11" style="fill:var(--danger)">m = 0.2 kg</text>
  <path d="M70.0 313.2 L540.0 95.1" style="stroke:var(--warn);fill:none;fill-opacity:1" stroke-width="2.4" stroke-linejoin="round" stroke-linecap="round"/>
  <text x="457.8" y="126.2" text-anchor="middle" font-size="11" style="fill:var(--warn)">m = 0.5 kg</text>
  <path d="M70.0 288.7 L540.0 288.7" style="stroke:var(--text-dim);fill:none;fill-opacity:1" stroke-width="1.1" stroke-linejoin="round" stroke-linecap="round" stroke-dasharray="5 4"/>
  <text class="tag" x="548.0" y="292.7" text-anchor="start">suction_20 18.8 N</text>
  <path d="M70.0 134.4 L540.0 134.4" style="stroke:var(--text-dim);fill:none;fill-opacity:1" stroke-width="1.1" stroke-linejoin="round" stroke-linecap="round" stroke-dasharray="5 4"/>
  <text class="tag" x="548.0" y="138.4" text-anchor="start">suction_40 75.4 N</text>
  <path d="M70.0 307.3 L540.0 307.3" style="stroke:var(--text-dim);fill:none;fill-opacity:1" stroke-width="1.1" stroke-linejoin="round" stroke-linecap="round" stroke-dasharray="5 4"/>
  <text class="tag" x="548.0" y="311.3" text-anchor="start">gripper_servo 2μF 12.0 N</text>
  <path d="M70.0 209.1 L540.0 209.1" style="stroke:var(--text-dim);fill:none;fill-opacity:1" stroke-width="1.1" stroke-linejoin="round" stroke-linecap="round" stroke-dasharray="5 4"/>
  <text class="tag" x="548.0" y="213.1" text-anchor="start">gripper_pneumatic 2μF 48.0 N</text>
  <path d="M70.0 67.3 L540.0 67.3" style="stroke:var(--text-dim);fill:none;fill-opacity:1" stroke-width="1.1" stroke-linejoin="round" stroke-linecap="round" stroke-dasharray="5 4"/>
  <text class="tag" x="548.0" y="71.3" text-anchor="start">electromagnet (철) 100.0 N</text>
  <text class="tag" x="305.0" y="402.0" text-anchor="middle">필요 유지력 F = m (g + a) · SF,  SF = 2.0</text>
</svg>
