<svg viewBox="0 0 760 470" xmlns="http://www.w3.org/2000/svg" role="img" aria-label="deltarobot.urdf 가 만드는 트리 구조">
  <defs>
    <marker id="arr-d07-urdf-tree" viewBox="0 0 10 10" refX="9" refY="5" markerWidth="7" markerHeight="7" orient="auto-start-reverse"><path d="M0 0 L10 5 L0 10 z" style="fill:var(--text-faint)"/></marker>
    <marker id="arr-d07-urdf-tree-hi" viewBox="0 0 10 10" refX="9" refY="5" markerWidth="7" markerHeight="7" orient="auto-start-reverse"><path d="M0 0 L10 5 L0 10 z" style="fill:var(--accent)"/></marker>
  </defs>
  <rect class="box-hi" x="300" y="20" width="160" height="40" rx="10"/>
  <text class="lbl" x="380.0" y="45.0" text-anchor="middle">base_link</text>
  <text class="lbl" x="170.0" y="112.0" text-anchor="middle">motor1_joint</text>
  <text class="tag" x="170.0" y="128.0" text-anchor="middle">revolute · 능동</text>
  <path class="ln" d="M170.0 132.0 L170.0 150.0" stroke-width="1.2" marker-end="url(#arr-d07-urdf-tree)"/>
  <rect class="box" x="90" y="150" width="160" height="36" rx="10"/>
  <text class="lbl" x="170.0" y="173.0" text-anchor="middle">upper_arm1</text>
  <path class="ln" d="M170.0 187.0 L170.0 205.0" stroke-width="1.2" marker-end="url(#arr-d07-urdf-tree)"/>
  <text class="lbl" x="170.0" y="222.0" text-anchor="middle">elbow1a_pitch</text>
  <text class="tag" x="170.0" y="238.0" text-anchor="middle">revolute · 수동</text>
  <path class="ln" d="M170.0 242.0 L170.0 260.0" stroke-width="1.2" marker-end="url(#arr-d07-urdf-tree)"/>
  <rect class="box" x="90" y="260" width="160" height="36" rx="10"/>
  <text class="lbl" x="170.0" y="283.0" text-anchor="middle">elbow1a_link</text>
  <path class="ln" d="M170.0 297.0 L170.0 315.0" stroke-width="1.2" marker-end="url(#arr-d07-urdf-tree)"/>
  <text class="lbl" x="170.0" y="332.0" text-anchor="middle">elbow1a_yaw</text>
  <text class="tag" x="170.0" y="348.0" text-anchor="middle">revolute · 수동</text>
  <path class="ln" d="M170.0 352.0 L170.0 370.0" stroke-width="1.2" marker-end="url(#arr-d07-urdf-tree)"/>
  <rect class="box" x="90" y="370" width="160" height="36" rx="10"/>
  <text class="lbl" x="170.0" y="393.0" text-anchor="middle">forearm1a</text>
  <path class="ln" d="M340 60 L340 75 L170 75 L170 94" stroke-width="1.2" marker-end="url(#arr-d07-urdf-tree)"/>
  <text class="tag" x="215.0" y="462.0" text-anchor="middle">팔 1 (a 로드).  b 로드: elbow1b_pitch/yaw 가 a 를 mimic (평행사변형)</text>
  <rect class="box" x="262" y="250" width="150" height="70" rx="10"/>
  <text class="lbl" x="337.0" y="275.0" text-anchor="middle">× 3 팔</text>
  <text class="tag" x="337.0" y="295.0" text-anchor="middle">motor2 · motor3 도</text>
  <text class="tag" x="337.0" y="310.0" text-anchor="middle">같은 모양</text>
  <text class="lbl" x="570.0" y="102.0" text-anchor="middle">effector_x</text>
  <text class="tag" x="570.0" y="117.0" text-anchor="middle">prismatic · 가상</text>
  <path class="ln" d="M570.0 120.0 L570.0 130.0" stroke-width="1.2" marker-end="url(#arr-d07-urdf-tree)"/>
  <rect class="box" x="490" y="132" width="160" height="32" rx="10"/>
  <text class="lbl" x="570.0" y="153.0" text-anchor="middle">effector_x_link</text>
  <path class="ln" d="M570.0 166.0 L570.0 176.0" stroke-width="1.2" marker-end="url(#arr-d07-urdf-tree)"/>
  <text class="lbl" x="570.0" y="194.0" text-anchor="middle">effector_y</text>
  <text class="tag" x="570.0" y="209.0" text-anchor="middle">prismatic · 가상</text>
  <path class="ln" d="M570.0 212.0 L570.0 222.0" stroke-width="1.2" marker-end="url(#arr-d07-urdf-tree)"/>
  <rect class="box" x="490" y="224" width="160" height="32" rx="10"/>
  <text class="lbl" x="570.0" y="245.0" text-anchor="middle">effector_y_link</text>
  <path class="ln" d="M570.0 258.0 L570.0 268.0" stroke-width="1.2" marker-end="url(#arr-d07-urdf-tree)"/>
  <text class="lbl" x="570.0" y="286.0" text-anchor="middle">effector_z</text>
  <text class="tag" x="570.0" y="301.0" text-anchor="middle">prismatic · 가상</text>
  <path class="ln" d="M570.0 304.0 L570.0 314.0" stroke-width="1.2" marker-end="url(#arr-d07-urdf-tree)"/>
  <rect class="box-hi" x="490" y="316" width="160" height="32" rx="10"/>
  <text class="lbl" x="570.0" y="337.0" text-anchor="middle">effector</text>
  <path class="ln" d="M570.0 350.0 L570.0 360.0" stroke-width="1.2" marker-end="url(#arr-d07-urdf-tree)"/>
  <text class="lbl" x="570.0" y="378.0" text-anchor="middle">tool_joint → tool_link</text>
  <text class="tag" x="570.0" y="393.0" text-anchor="middle">fixed</text>
  <path class="ln" d="M570.0 396.0 L570.0 406.0" stroke-width="1.2" marker-end="url(#arr-d07-urdf-tree)"/>
  <text class="lbl" x="570.0" y="424.0" text-anchor="middle">tcp_joint → tcp</text>
  <text class="tag" x="570.0" y="439.0" text-anchor="middle">fixed</text>
  <path class="ln" d="M420 60 L420 75 L570 75 L570 84" stroke-width="1.2" marker-end="url(#arr-d07-urdf-tree)"/>
  <text class="tag" x="680.0" y="36.0" text-anchor="end">링크 21 · 관절 20 (revolute 15, prismatic 3, fixed 2) · mimic 6</text>
</svg>
