<svg viewBox="0 0 760 460" xmlns="http://www.w3.org/2000/svg" role="img" aria-label="델타로봇의 구성 요소">
  <defs>
    <marker id="arr-t02-structure" viewBox="0 0 10 10" refX="9" refY="5" markerWidth="7" markerHeight="7" orient="auto-start-reverse"><path d="M0 0 L10 5 L0 10 z" style="fill:var(--text-faint)"/></marker>
    <marker id="arr-t02-structure-hi" viewBox="0 0 10 10" refX="9" refY="5" markerWidth="7" markerHeight="7" orient="auto-start-reverse"><path d="M0 0 L10 5 L0 10 z" style="fill:var(--accent)"/></marker>
  </defs>
  <path class="box" d="M397.4 107.4 L403.9 103.3 L408.7 99 L411.5 94.5 L412.5 90 L411.5 85.5 L408.7 81 L403.9 76.7 L397.4 72.6 L389.3 68.8 L379.5 65.4 L368.5 62.4 L356.2 59.9 L343.1 57.9 L329.1 56.4 L314.7 55.5 L300 55.2 L285.3 55.5 L270.9 56.4 L256.9 57.9 L243.8 59.9 L231.5 62.4 L220.5 65.4 L210.7 68.8 L202.6 72.6 L196.1 76.7 L191.3 81 L188.5 85.5 L187.5 90 L188.5 94.5 L191.3 99 L196.1 103.3 L202.6 107.4 L210.7 111.2 L220.5 114.6 L231.5 117.6 L243.7 120.1 L256.9 122.1 L270.9 123.6 L285.3 124.5 L300 124.8 L314.7 124.5 L329.1 123.6 L343.1 122.1 L356.2 120.1 L368.5 117.6 L379.5 114.6 L389.3 111.2 Z" stroke-width="1.4"/>
  <path style="fill:none;stroke:var(--text-dim)" d="M273 62.2 L327 62.2" stroke-width="9" stroke-linecap="round"/>
  <path class="ln-hi" d="M300 62.2 L300 70.1" stroke-width="5" stroke-linecap="round"/>
  <path style="fill:none;stroke:var(--text-dim)" d="M277.5 70.1 L322.5 70.1" stroke-width="2.5" stroke-linecap="round"/>
  <path style="fill:none;stroke:var(--text-dim)" d="M277.5 70.1 L300.9 315.5" stroke-width="1.8"/>
  <path style="fill:none;stroke:var(--text-dim)" d="M322.5 70.1 L345.9 315.5" stroke-width="1.8"/>
  <circle class="hi" cx="277.5" cy="70.1" r="2.6"/>
  <circle class="hi" cx="322.5" cy="70.1" r="2.6"/>
  <circle class="hi" cx="300.9" cy="315.5" r="2.6"/>
  <circle class="hi" cx="345.9" cy="315.5" r="2.6"/>
  <path style="fill:none;stroke:var(--text-dim)" d="M235.6 111.1 L208.6 96.7" stroke-width="9" stroke-linecap="round"/>
  <path class="ln-hi" d="M222.1 103.9 L128 162.2" stroke-width="5" stroke-linecap="round"/>
  <path style="fill:none;stroke:var(--text-dim)" d="M139.3 168.2 L116.8 156.1" stroke-width="2.5" stroke-linecap="round"/>
  <path style="fill:none;stroke:var(--text-dim)" d="M139.3 168.2 L307.4 336.2" stroke-width="1.8"/>
  <path style="fill:none;stroke:var(--text-dim)" d="M116.8 156.1 L284.9 324.1" stroke-width="1.8"/>
  <circle class="hi" cx="139.3" cy="168.2" r="2.6"/>
  <circle class="hi" cx="116.8" cy="156.1" r="2.6"/>
  <circle class="hi" cx="307.4" cy="336.2" r="2.6"/>
  <circle class="hi" cx="284.9" cy="324.1" r="2.6"/>
  <path style="fill:none;stroke:var(--text-dim)" d="M391.4 96.7 L364.4 111.1" stroke-width="9" stroke-linecap="round"/>
  <path class="ln-hi" d="M377.9 103.9 L478.2 137.7" stroke-width="5" stroke-linecap="round"/>
  <path style="fill:none;stroke:var(--text-dim)" d="M489.5 131.7 L467 143.7" stroke-width="2.5" stroke-linecap="round"/>
  <path style="fill:none;stroke:var(--text-dim)" d="M489.5 131.7 L361.9 324.1" stroke-width="1.8"/>
  <path style="fill:none;stroke:var(--text-dim)" d="M467 143.7 L339.4 336.2" stroke-width="1.8"/>
  <circle class="hi" cx="489.5" cy="131.7" r="2.6"/>
  <circle class="hi" cx="467" cy="143.7" r="2.6"/>
  <circle class="hi" cx="361.9" cy="324.1" r="2.6"/>
  <circle class="hi" cx="339.4" cy="336.2" r="2.6"/>
  <path class="box-hi" d="M360.2 331.8 L363.3 329.8 L365.3 327.6 L365.9 325.3 L365.3 323 L363.3 320.8 L360.2 318.7 L356 316.8 L350.7 315.2 L344.6 313.9 L337.9 312.9 L330.8 312.3 L323.4 312.1 L316 312.3 L308.8 312.9 L302.1 313.9 L296 315.2 L290.8 316.8 L286.6 318.7 L283.4 320.8 L281.5 323 L280.9 325.3 L281.5 327.6 L283.4 329.8 L286.6 331.8 L290.8 333.7 L296 335.3 L302.1 336.7 L308.8 337.6 L316 338.2 L323.4 338.4 L330.8 338.2 L337.9 337.6 L344.6 336.7 L350.7 335.3 L356 333.7 Z" stroke-width="1.4"/>
  <path style="fill:none;stroke:var(--text-dim)" d="M323.4 325.3 L323.4 385.2" stroke-width="3"/>
  <circle class="hi" cx="323.4" cy="385.2" r="3.5"/>
  <path class="ln" d="M554 36 L300 90" stroke-width="1" marker-end="url(#arr-t02-structure)"/>
  <text class="lbl" x="560" y="40" text-anchor="start">베이스 (고정)</text>
  <text class="sub" x="560" y="57" text-anchor="start">모터 3개가 120° 간격</text>
  <path class="ln" d="M594 96 L377.9 103.9" stroke-width="1" marker-end="url(#arr-t02-structure)"/>
  <text class="lbl" x="600" y="100" text-anchor="start">모터 = 능동 회전관절</text>
  <text class="sub" x="600" y="117" text-anchor="start">축은 베이스 원의 접선 방향</text>
  <path class="ln" d="M614 166 L428.1 120.8" stroke-width="1" marker-end="url(#arr-t02-structure)"/>
  <text class="lbl" x="620" y="170" text-anchor="start">위팔 L</text>
  <text class="sub" x="620" y="187" text-anchor="start">모터가 직접 돌리는 링크</text>
  <path class="ln" d="M614 231 L478.2 137.7" stroke-width="1" marker-end="url(#arr-t02-structure)"/>
  <text class="lbl" x="620" y="235" text-anchor="start">팔꿈치 (볼조인트 2개)</text>
  <text class="sub" x="620" y="252" text-anchor="start">간격 w</text>
  <path class="ln" d="M614 296 L425.7 227.9" stroke-width="1" marker-end="url(#arr-t02-structure)"/>
  <text class="lbl" x="620" y="300" text-anchor="start">아래팔 = 평행사변형</text>
  <text class="sub" x="620" y="317" text-anchor="start">길이 l 로드 2개</text>
  <path class="ln" d="M604 376 L323.4 325.3" stroke-width="1" marker-end="url(#arr-t02-structure)"/>
  <text class="lbl" x="610" y="380" text-anchor="start">이펙터 (움직이는 판)</text>
  <text class="sub" x="610" y="397" text-anchor="start">볼조인트 6개, 병진만</text>
  <path class="ln" d="M156 426 L323.4 385.2" stroke-width="1" marker-end="url(#arr-t02-structure)"/>
  <text class="lbl" x="150" y="430" text-anchor="end">TCP (툴 끝)</text>
  <text class="sub" x="150" y="447" text-anchor="end">이펙터 중심 − 툴 길이</text>
</svg>
