<svg viewBox="0 0 760 500" xmlns="http://www.w3.org/2000/svg" role="img" aria-label="y = 0 단면의 작업영역과 제한 요인">
  <defs>
    <marker id="arr-t07-workspace-section" viewBox="0 0 10 10" refX="9" refY="5" markerWidth="7" markerHeight="7" orient="auto-start-reverse"><path d="M0 0 L10 5 L0 10 z" style="fill:var(--text-faint)"/></marker>
    <marker id="arr-t07-workspace-section-hi" viewBox="0 0 10 10" refX="9" refY="5" markerWidth="7" markerHeight="7" orient="auto-start-reverse"><path d="M0 0 L10 5 L0 10 z" style="fill:var(--accent)"/></marker>
  </defs>
  <rect x="18.2" y="38.2" width="42.6" height="4.1" shape-rendering="crispEdges" style="fill:var(--danger);fill-opacity:0.45"/>
  <rect x="406.8" y="38.2" width="11.1" height="4.1" shape-rendering="crispEdges" style="fill:var(--task);fill-opacity:0.55"/>
  <rect x="417.2" y="38.2" width="53.1" height="4.1" shape-rendering="crispEdges" style="fill:var(--danger);fill-opacity:0.45"/>
  <rect x="18.2" y="41.8" width="42.6" height="4.1" shape-rendering="crispEdges" style="fill:var(--danger);fill-opacity:0.45"/>
  <rect x="406.8" y="41.8" width="11.1" height="4.1" shape-rendering="crispEdges" style="fill:var(--task);fill-opacity:0.55"/>
  <rect x="417.2" y="41.8" width="53.1" height="4.1" shape-rendering="crispEdges" style="fill:var(--danger);fill-opacity:0.45"/>
  <rect x="18.2" y="45.2" width="42.6" height="4.1" shape-rendering="crispEdges" style="fill:var(--danger);fill-opacity:0.45"/>
  <rect x="406.8" y="45.2" width="11.1" height="4.1" shape-rendering="crispEdges" style="fill:var(--task);fill-opacity:0.55"/>
  <rect x="417.2" y="45.2" width="53.1" height="4.1" shape-rendering="crispEdges" style="fill:var(--danger);fill-opacity:0.45"/>
  <rect x="18.2" y="48.8" width="42.6" height="4.1" shape-rendering="crispEdges" style="fill:var(--danger);fill-opacity:0.45"/>
  <rect x="406.8" y="48.8" width="11.1" height="4.1" shape-rendering="crispEdges" style="fill:var(--task);fill-opacity:0.55"/>
  <rect x="417.2" y="48.8" width="53.1" height="4.1" shape-rendering="crispEdges" style="fill:var(--danger);fill-opacity:0.45"/>
  <rect x="18.2" y="52.2" width="42.6" height="4.1" shape-rendering="crispEdges" style="fill:var(--danger);fill-opacity:0.45"/>
  <rect x="406.8" y="52.2" width="11.1" height="4.1" shape-rendering="crispEdges" style="fill:var(--task);fill-opacity:0.55"/>
  <rect x="417.2" y="52.2" width="53.1" height="4.1" shape-rendering="crispEdges" style="fill:var(--danger);fill-opacity:0.45"/>
  <rect x="18.2" y="55.8" width="46.1" height="4.1" shape-rendering="crispEdges" style="fill:var(--danger);fill-opacity:0.45"/>
  <rect x="406.8" y="55.8" width="11.1" height="4.1" shape-rendering="crispEdges" style="fill:var(--task);fill-opacity:0.55"/>
  <rect x="417.2" y="55.8" width="53.1" height="4.1" shape-rendering="crispEdges" style="fill:var(--danger);fill-opacity:0.45"/>
  <rect x="18.2" y="59.2" width="46.1" height="4.1" shape-rendering="crispEdges" style="fill:var(--danger);fill-opacity:0.45"/>
  <rect x="406.8" y="59.2" width="11.1" height="4.1" shape-rendering="crispEdges" style="fill:var(--task);fill-opacity:0.55"/>
  <rect x="417.2" y="59.2" width="53.1" height="4.1" shape-rendering="crispEdges" style="fill:var(--danger);fill-opacity:0.45"/>
  <rect x="18.2" y="62.8" width="46.1" height="4.1" shape-rendering="crispEdges" style="fill:var(--danger);fill-opacity:0.45"/>
  <rect x="406.8" y="62.8" width="7.6" height="4.1" shape-rendering="crispEdges" style="fill:var(--task);fill-opacity:0.55"/>
  <rect x="413.8" y="62.8" width="56.6" height="4.1" shape-rendering="crispEdges" style="fill:var(--danger);fill-opacity:0.45"/>
  <rect x="18.2" y="66.2" width="49.6" height="4.1" shape-rendering="crispEdges" style="fill:var(--danger);fill-opacity:0.45"/>
  <rect x="406.8" y="66.2" width="7.6" height="4.1" shape-rendering="crispEdges" style="fill:var(--task);fill-opacity:0.55"/>
  <rect x="413.8" y="66.2" width="56.6" height="4.1" shape-rendering="crispEdges" style="fill:var(--danger);fill-opacity:0.45"/>
  <rect x="18.2" y="69.8" width="49.6" height="4.1" shape-rendering="crispEdges" style="fill:var(--danger);fill-opacity:0.45"/>
  <rect x="403.2" y="69.8" width="11.1" height="4.1" shape-rendering="crispEdges" style="fill:var(--task);fill-opacity:0.55"/>
  <rect x="413.8" y="69.8" width="56.6" height="4.1" shape-rendering="crispEdges" style="fill:var(--danger);fill-opacity:0.45"/>
  <rect x="18.2" y="73.2" width="53.1" height="4.1" shape-rendering="crispEdges" style="fill:var(--danger);fill-opacity:0.45"/>
  <rect x="403.2" y="73.2" width="11.1" height="4.1" shape-rendering="crispEdges" style="fill:var(--task);fill-opacity:0.55"/>
  <rect x="413.8" y="73.2" width="56.6" height="4.1" shape-rendering="crispEdges" style="fill:var(--danger);fill-opacity:0.45"/>
  <rect x="18.2" y="76.8" width="53.1" height="4.1" shape-rendering="crispEdges" style="fill:var(--danger);fill-opacity:0.45"/>
  <rect x="403.2" y="76.8" width="7.6" height="4.1" shape-rendering="crispEdges" style="fill:var(--task);fill-opacity:0.55"/>
  <rect x="410.2" y="76.8" width="60.1" height="4.1" shape-rendering="crispEdges" style="fill:var(--danger);fill-opacity:0.45"/>
  <rect x="18.2" y="80.2" width="56.6" height="4.1" shape-rendering="crispEdges" style="fill:var(--danger);fill-opacity:0.45"/>
  <rect x="399.8" y="80.2" width="11.1" height="4.1" shape-rendering="crispEdges" style="fill:var(--task);fill-opacity:0.55"/>
  <rect x="410.2" y="80.2" width="60.1" height="4.1" shape-rendering="crispEdges" style="fill:var(--danger);fill-opacity:0.45"/>
  <rect x="18.2" y="83.8" width="56.6" height="4.1" shape-rendering="crispEdges" style="fill:var(--danger);fill-opacity:0.45"/>
  <rect x="399.8" y="83.8" width="11.1" height="4.1" shape-rendering="crispEdges" style="fill:var(--task);fill-opacity:0.55"/>
  <rect x="410.2" y="83.8" width="60.1" height="4.1" shape-rendering="crispEdges" style="fill:var(--danger);fill-opacity:0.45"/>
  <rect x="18.2" y="87.2" width="60.1" height="4.1" shape-rendering="crispEdges" style="fill:var(--danger);fill-opacity:0.45"/>
  <rect x="396.2" y="87.2" width="11.1" height="4.1" shape-rendering="crispEdges" style="fill:var(--task);fill-opacity:0.55"/>
  <rect x="406.8" y="87.2" width="63.6" height="4.1" shape-rendering="crispEdges" style="fill:var(--danger);fill-opacity:0.45"/>
  <rect x="18.2" y="90.8" width="63.6" height="4.1" shape-rendering="crispEdges" style="fill:var(--danger);fill-opacity:0.45"/>
  <rect x="396.2" y="90.8" width="11.1" height="4.1" shape-rendering="crispEdges" style="fill:var(--task);fill-opacity:0.55"/>
  <rect x="406.8" y="90.8" width="63.6" height="4.1" shape-rendering="crispEdges" style="fill:var(--danger);fill-opacity:0.45"/>
  <rect x="18.2" y="94.2" width="67.1" height="4.1" shape-rendering="crispEdges" style="fill:var(--danger);fill-opacity:0.45"/>
  <rect x="392.8" y="94.2" width="11.1" height="4.1" shape-rendering="crispEdges" style="fill:var(--task);fill-opacity:0.55"/>
  <rect x="403.2" y="94.2" width="67.1" height="4.1" shape-rendering="crispEdges" style="fill:var(--danger);fill-opacity:0.45"/>
  <rect x="18.2" y="97.8" width="67.1" height="4.1" shape-rendering="crispEdges" style="fill:var(--danger);fill-opacity:0.45"/>
  <rect x="392.8" y="97.8" width="11.1" height="4.1" shape-rendering="crispEdges" style="fill:var(--task);fill-opacity:0.55"/>
  <rect x="403.2" y="97.8" width="67.1" height="4.1" shape-rendering="crispEdges" style="fill:var(--danger);fill-opacity:0.45"/>
  <rect x="18.2" y="101.2" width="70.6" height="4.1" shape-rendering="crispEdges" style="fill:var(--danger);fill-opacity:0.45"/>
  <rect x="389.2" y="101.2" width="11.1" height="4.1" shape-rendering="crispEdges" style="fill:var(--task);fill-opacity:0.55"/>
  <rect x="399.8" y="101.2" width="70.6" height="4.1" shape-rendering="crispEdges" style="fill:var(--danger);fill-opacity:0.45"/>
  <rect x="18.2" y="104.8" width="74.1" height="4.1" shape-rendering="crispEdges" style="fill:var(--danger);fill-opacity:0.45"/>
  <rect x="389.2" y="104.8" width="11.1" height="4.1" shape-rendering="crispEdges" style="fill:var(--task);fill-opacity:0.55"/>
  <rect x="399.8" y="104.8" width="70.6" height="4.1" shape-rendering="crispEdges" style="fill:var(--danger);fill-opacity:0.45"/>
  <rect x="18.2" y="108.2" width="77.6" height="4.1" shape-rendering="crispEdges" style="fill:var(--danger);fill-opacity:0.45"/>
  <rect x="385.8" y="108.2" width="11.1" height="4.1" shape-rendering="crispEdges" style="fill:var(--task);fill-opacity:0.55"/>
  <rect x="396.2" y="108.2" width="70.6" height="4.1" shape-rendering="crispEdges" style="fill:var(--danger);fill-opacity:0.45"/>
  <rect x="18.2" y="111.8" width="81.1" height="4.1" shape-rendering="crispEdges" style="fill:var(--danger);fill-opacity:0.45"/>
  <rect x="382.2" y="111.8" width="14.6" height="4.1" shape-rendering="crispEdges" style="fill:var(--task);fill-opacity:0.55"/>
  <rect x="396.2" y="111.8" width="70.6" height="4.1" shape-rendering="crispEdges" style="fill:var(--danger);fill-opacity:0.45"/>
  <rect x="18.2" y="115.2" width="88.1" height="4.1" shape-rendering="crispEdges" style="fill:var(--danger);fill-opacity:0.45"/>
  <rect x="378.8" y="115.2" width="14.6" height="4.1" shape-rendering="crispEdges" style="fill:var(--task);fill-opacity:0.55"/>
  <rect x="392.8" y="115.2" width="74.1" height="4.1" shape-rendering="crispEdges" style="fill:var(--danger);fill-opacity:0.45"/>
  <rect x="18.2" y="118.8" width="88.1" height="4.1" shape-rendering="crispEdges" style="fill:var(--danger);fill-opacity:0.45"/>
  <rect x="105.8" y="118.8" width="4.1" height="4.1" shape-rendering="crispEdges" style="fill:var(--warn);fill-opacity:0.55"/>
  <rect x="378.8" y="118.8" width="11.1" height="4.1" shape-rendering="crispEdges" style="fill:var(--task);fill-opacity:0.55"/>
  <rect x="389.2" y="118.8" width="77.6" height="4.1" shape-rendering="crispEdges" style="fill:var(--danger);fill-opacity:0.45"/>
  <rect x="18.2" y="122.2" width="88.1" height="4.1" shape-rendering="crispEdges" style="fill:var(--danger);fill-opacity:0.45"/>
  <rect x="105.8" y="122.2" width="7.6" height="4.1" shape-rendering="crispEdges" style="fill:var(--warn);fill-opacity:0.55"/>
  <rect x="375.2" y="122.2" width="11.1" height="4.1" shape-rendering="crispEdges" style="fill:var(--task);fill-opacity:0.55"/>
  <rect x="385.8" y="122.2" width="81.1" height="4.1" shape-rendering="crispEdges" style="fill:var(--danger);fill-opacity:0.45"/>
  <rect x="18.2" y="125.8" width="88.1" height="4.1" shape-rendering="crispEdges" style="fill:var(--danger);fill-opacity:0.45"/>
  <rect x="105.8" y="125.8" width="14.6" height="4.1" shape-rendering="crispEdges" style="fill:var(--warn);fill-opacity:0.55"/>
  <rect x="371.8" y="125.8" width="11.1" height="4.1" shape-rendering="crispEdges" style="fill:var(--task);fill-opacity:0.55"/>
  <rect x="382.2" y="125.8" width="81.1" height="4.1" shape-rendering="crispEdges" style="fill:var(--danger);fill-opacity:0.45"/>
  <rect x="18.2" y="129.2" width="88.1" height="4.1" shape-rendering="crispEdges" style="fill:var(--danger);fill-opacity:0.45"/>
  <rect x="105.8" y="129.2" width="21.6" height="4.1" shape-rendering="crispEdges" style="fill:var(--warn);fill-opacity:0.55"/>
  <rect x="364.8" y="129.2" width="14.6" height="4.1" shape-rendering="crispEdges" style="fill:var(--task);fill-opacity:0.55"/>
  <rect x="378.8" y="129.2" width="4.1" height="4.1" shape-rendering="crispEdges" style="fill:var(--warn);fill-opacity:0.55"/>
  <rect x="382.2" y="129.2" width="81.1" height="4.1" shape-rendering="crispEdges" style="fill:var(--danger);fill-opacity:0.45"/>
  <rect x="18.2" y="132.8" width="88.1" height="4.1" shape-rendering="crispEdges" style="fill:var(--danger);fill-opacity:0.45"/>
  <rect x="105.8" y="132.8" width="25.1" height="4.1" shape-rendering="crispEdges" style="fill:var(--warn);fill-opacity:0.55"/>
  <rect x="361.2" y="132.8" width="14.6" height="4.1" shape-rendering="crispEdges" style="fill:var(--task);fill-opacity:0.55"/>
  <rect x="375.2" y="132.8" width="7.6" height="4.1" shape-rendering="crispEdges" style="fill:var(--warn);fill-opacity:0.55"/>
  <rect x="382.2" y="132.8" width="81.1" height="4.1" shape-rendering="crispEdges" style="fill:var(--danger);fill-opacity:0.45"/>
  <rect x="18.2" y="136.2" width="88.1" height="4.1" shape-rendering="crispEdges" style="fill:var(--danger);fill-opacity:0.45"/>
  <rect x="105.8" y="136.2" width="32.1" height="4.1" shape-rendering="crispEdges" style="fill:var(--warn);fill-opacity:0.55"/>
  <rect x="357.8" y="136.2" width="14.6" height="4.1" shape-rendering="crispEdges" style="fill:var(--task);fill-opacity:0.55"/>
  <rect x="371.8" y="136.2" width="11.1" height="4.1" shape-rendering="crispEdges" style="fill:var(--warn);fill-opacity:0.55"/>
  <rect x="382.2" y="136.2" width="81.1" height="4.1" shape-rendering="crispEdges" style="fill:var(--danger);fill-opacity:0.45"/>
  <rect x="18.2" y="139.8" width="88.1" height="4.1" shape-rendering="crispEdges" style="fill:var(--danger);fill-opacity:0.45"/>
  <rect x="105.8" y="139.8" width="42.6" height="4.1" shape-rendering="crispEdges" style="fill:var(--warn);fill-opacity:0.55"/>
  <rect x="350.8" y="139.8" width="18.1" height="4.1" shape-rendering="crispEdges" style="fill:var(--task);fill-opacity:0.55"/>
  <rect x="368.2" y="139.8" width="14.6" height="4.1" shape-rendering="crispEdges" style="fill:var(--warn);fill-opacity:0.55"/>
  <rect x="382.2" y="139.8" width="81.1" height="4.1" shape-rendering="crispEdges" style="fill:var(--danger);fill-opacity:0.45"/>
  <rect x="18.2" y="143.2" width="88.1" height="4.1" shape-rendering="crispEdges" style="fill:var(--danger);fill-opacity:0.45"/>
  <rect x="105.8" y="143.2" width="53.1" height="4.1" shape-rendering="crispEdges" style="fill:var(--warn);fill-opacity:0.55"/>
  <rect x="343.8" y="143.2" width="21.6" height="4.1" shape-rendering="crispEdges" style="fill:var(--task);fill-opacity:0.55"/>
  <rect x="364.8" y="143.2" width="18.1" height="4.1" shape-rendering="crispEdges" style="fill:var(--warn);fill-opacity:0.55"/>
  <rect x="382.2" y="143.2" width="77.6" height="4.1" shape-rendering="crispEdges" style="fill:var(--danger);fill-opacity:0.45"/>
  <rect x="18.2" y="146.8" width="88.1" height="4.1" shape-rendering="crispEdges" style="fill:var(--danger);fill-opacity:0.45"/>
  <rect x="105.8" y="146.8" width="60.1" height="4.1" shape-rendering="crispEdges" style="fill:var(--warn);fill-opacity:0.55"/>
  <rect x="165.2" y="146.8" width="4.1" height="4.1" shape-rendering="crispEdges" style="fill:var(--task);fill-opacity:0.55"/>
  <rect x="336.8" y="146.8" width="21.6" height="4.1" shape-rendering="crispEdges" style="fill:var(--task);fill-opacity:0.55"/>
  <rect x="357.8" y="146.8" width="25.1" height="4.1" shape-rendering="crispEdges" style="fill:var(--warn);fill-opacity:0.55"/>
  <rect x="382.2" y="146.8" width="77.6" height="4.1" shape-rendering="crispEdges" style="fill:var(--danger);fill-opacity:0.45"/>
  <rect x="18.2" y="150.2" width="88.1" height="4.1" shape-rendering="crispEdges" style="fill:var(--danger);fill-opacity:0.45"/>
  <rect x="105.8" y="150.2" width="11.1" height="4.1" shape-rendering="crispEdges" style="fill:var(--accent);fill-opacity:0.55"/>
  <rect x="116.2" y="150.2" width="56.6" height="4.1" shape-rendering="crispEdges" style="fill:var(--warn);fill-opacity:0.55"/>
  <rect x="172.2" y="150.2" width="18.1" height="4.1" shape-rendering="crispEdges" style="fill:var(--task);fill-opacity:0.55"/>
  <rect x="231.8" y="150.2" width="18.1" height="4.1" shape-rendering="crispEdges" style="fill:var(--task);fill-opacity:0.55"/>
  <rect x="329.8" y="150.2" width="21.6" height="4.1" shape-rendering="crispEdges" style="fill:var(--task);fill-opacity:0.55"/>
  <rect x="350.8" y="150.2" width="32.1" height="4.1" shape-rendering="crispEdges" style="fill:var(--warn);fill-opacity:0.55"/>
  <rect x="382.2" y="150.2" width="77.6" height="4.1" shape-rendering="crispEdges" style="fill:var(--danger);fill-opacity:0.45"/>
  <rect x="18.2" y="153.8" width="88.1" height="4.1" shape-rendering="crispEdges" style="fill:var(--danger);fill-opacity:0.45"/>
  <rect x="105.8" y="153.8" width="18.1" height="4.1" shape-rendering="crispEdges" style="fill:var(--accent);fill-opacity:0.55"/>
  <rect x="123.2" y="153.8" width="60.1" height="4.1" shape-rendering="crispEdges" style="fill:var(--warn);fill-opacity:0.55"/>
  <rect x="182.8" y="153.8" width="77.6" height="4.1" shape-rendering="crispEdges" style="fill:var(--task);fill-opacity:0.55"/>
  <rect x="319.2" y="153.8" width="25.1" height="4.1" shape-rendering="crispEdges" style="fill:var(--task);fill-opacity:0.55"/>
  <rect x="343.8" y="153.8" width="39.1" height="4.1" shape-rendering="crispEdges" style="fill:var(--warn);fill-opacity:0.55"/>
  <rect x="382.2" y="153.8" width="74.1" height="4.1" shape-rendering="crispEdges" style="fill:var(--danger);fill-opacity:0.45"/>
  <rect x="18.2" y="157.2" width="88.1" height="4.1" shape-rendering="crispEdges" style="fill:var(--danger);fill-opacity:0.45"/>
  <rect x="105.8" y="157.2" width="28.6" height="4.1" shape-rendering="crispEdges" style="fill:var(--accent);fill-opacity:0.55"/>
  <rect x="133.8" y="157.2" width="60.1" height="4.1" shape-rendering="crispEdges" style="fill:var(--warn);fill-opacity:0.55"/>
  <rect x="193.2" y="157.2" width="144.1" height="4.1" shape-rendering="crispEdges" style="fill:var(--task);fill-opacity:0.55"/>
  <rect x="336.8" y="157.2" width="46.1" height="4.1" shape-rendering="crispEdges" style="fill:var(--warn);fill-opacity:0.55"/>
  <rect x="382.2" y="157.2" width="74.1" height="4.1" shape-rendering="crispEdges" style="fill:var(--danger);fill-opacity:0.45"/>
  <rect x="18.2" y="160.8" width="88.1" height="4.1" shape-rendering="crispEdges" style="fill:var(--danger);fill-opacity:0.45"/>
  <rect x="105.8" y="160.8" width="46.1" height="4.1" shape-rendering="crispEdges" style="fill:var(--accent);fill-opacity:0.55"/>
  <rect x="151.2" y="160.8" width="74.1" height="4.1" shape-rendering="crispEdges" style="fill:var(--warn);fill-opacity:0.55"/>
  <rect x="224.8" y="160.8" width="28.6" height="4.1" shape-rendering="crispEdges" style="fill:var(--accent);fill-opacity:0.55"/>
  <rect x="252.8" y="160.8" width="74.1" height="4.1" shape-rendering="crispEdges" style="fill:var(--task);fill-opacity:0.55"/>
  <rect x="326.2" y="160.8" width="56.6" height="4.1" shape-rendering="crispEdges" style="fill:var(--warn);fill-opacity:0.55"/>
  <rect x="382.2" y="160.8" width="74.1" height="4.1" shape-rendering="crispEdges" style="fill:var(--danger);fill-opacity:0.45"/>
  <rect x="18.2" y="164.2" width="88.1" height="4.1" shape-rendering="crispEdges" style="fill:var(--danger);fill-opacity:0.45"/>
  <rect x="105.8" y="164.2" width="74.1" height="4.1" shape-rendering="crispEdges" style="fill:var(--accent);fill-opacity:0.55"/>
  <rect x="179.2" y="164.2" width="18.1" height="4.1" shape-rendering="crispEdges" style="fill:var(--warn);fill-opacity:0.55"/>
  <rect x="196.8" y="164.2" width="63.6" height="4.1" shape-rendering="crispEdges" style="fill:var(--accent);fill-opacity:0.55"/>
  <rect x="259.8" y="164.2" width="7.6" height="4.1" shape-rendering="crispEdges" style="fill:var(--warn);fill-opacity:0.55"/>
  <rect x="266.8" y="164.2" width="46.1" height="4.1" shape-rendering="crispEdges" style="fill:var(--task);fill-opacity:0.55"/>
  <rect x="312.2" y="164.2" width="70.6" height="4.1" shape-rendering="crispEdges" style="fill:var(--warn);fill-opacity:0.55"/>
  <rect x="382.2" y="164.2" width="70.6" height="4.1" shape-rendering="crispEdges" style="fill:var(--danger);fill-opacity:0.45"/>
  <rect x="18.2" y="167.8" width="4.1" height="4.1" shape-rendering="crispEdges" style="fill:var(--task);fill-opacity:0.55"/>
  <rect x="21.8" y="167.8" width="84.6" height="4.1" shape-rendering="crispEdges" style="fill:var(--danger);fill-opacity:0.45"/>
  <rect x="105.8" y="167.8" width="161.6" height="4.1" shape-rendering="crispEdges" style="fill:var(--accent);fill-opacity:0.55"/>
  <rect x="266.8" y="167.8" width="116.1" height="4.1" shape-rendering="crispEdges" style="fill:var(--warn);fill-opacity:0.55"/>
  <rect x="382.2" y="167.8" width="70.6" height="4.1" shape-rendering="crispEdges" style="fill:var(--danger);fill-opacity:0.45"/>
  <rect x="18.2" y="171.2" width="4.1" height="4.1" shape-rendering="crispEdges" style="fill:var(--task);fill-opacity:0.55"/>
  <rect x="21.8" y="171.2" width="84.6" height="4.1" shape-rendering="crispEdges" style="fill:var(--danger);fill-opacity:0.45"/>
  <rect x="105.8" y="171.2" width="168.6" height="4.1" shape-rendering="crispEdges" style="fill:var(--accent);fill-opacity:0.55"/>
  <rect x="273.8" y="171.2" width="109.1" height="4.1" shape-rendering="crispEdges" style="fill:var(--warn);fill-opacity:0.55"/>
  <rect x="382.2" y="171.2" width="70.6" height="4.1" shape-rendering="crispEdges" style="fill:var(--danger);fill-opacity:0.45"/>
  <rect x="21.8" y="174.8" width="4.1" height="4.1" shape-rendering="crispEdges" style="fill:var(--task);fill-opacity:0.55"/>
  <rect x="25.2" y="174.8" width="81.1" height="4.1" shape-rendering="crispEdges" style="fill:var(--danger);fill-opacity:0.45"/>
  <rect x="105.8" y="174.8" width="175.6" height="4.1" shape-rendering="crispEdges" style="fill:var(--accent);fill-opacity:0.55"/>
  <rect x="280.8" y="174.8" width="102.1" height="4.1" shape-rendering="crispEdges" style="fill:var(--warn);fill-opacity:0.55"/>
  <rect x="382.2" y="174.8" width="67.1" height="4.1" shape-rendering="crispEdges" style="fill:var(--danger);fill-opacity:0.45"/>
  <rect x="21.8" y="178.2" width="4.1" height="4.1" shape-rendering="crispEdges" style="fill:var(--task);fill-opacity:0.55"/>
  <rect x="25.2" y="178.2" width="81.1" height="4.1" shape-rendering="crispEdges" style="fill:var(--danger);fill-opacity:0.45"/>
  <rect x="105.8" y="178.2" width="186.1" height="4.1" shape-rendering="crispEdges" style="fill:var(--accent);fill-opacity:0.55"/>
  <rect x="291.2" y="178.2" width="91.6" height="4.1" shape-rendering="crispEdges" style="fill:var(--warn);fill-opacity:0.55"/>
  <rect x="382.2" y="178.2" width="67.1" height="4.1" shape-rendering="crispEdges" style="fill:var(--danger);fill-opacity:0.45"/>
  <rect x="25.2" y="181.8" width="4.1" height="4.1" shape-rendering="crispEdges" style="fill:var(--task);fill-opacity:0.55"/>
  <rect x="28.8" y="181.8" width="77.6" height="4.1" shape-rendering="crispEdges" style="fill:var(--danger);fill-opacity:0.45"/>
  <rect x="105.8" y="181.8" width="196.6" height="4.1" shape-rendering="crispEdges" style="fill:var(--accent);fill-opacity:0.55"/>
  <rect x="301.8" y="181.8" width="81.1" height="4.1" shape-rendering="crispEdges" style="fill:var(--warn);fill-opacity:0.55"/>
  <rect x="382.2" y="181.8" width="67.1" height="4.1" shape-rendering="crispEdges" style="fill:var(--danger);fill-opacity:0.45"/>
  <rect x="25.2" y="185.2" width="4.1" height="4.1" shape-rendering="crispEdges" style="fill:var(--task);fill-opacity:0.55"/>
  <rect x="28.8" y="185.2" width="77.6" height="4.1" shape-rendering="crispEdges" style="fill:var(--danger);fill-opacity:0.45"/>
  <rect x="105.8" y="185.2" width="210.6" height="4.1" shape-rendering="crispEdges" style="fill:var(--accent);fill-opacity:0.55"/>
  <rect x="315.8" y="185.2" width="67.1" height="4.1" shape-rendering="crispEdges" style="fill:var(--warn);fill-opacity:0.55"/>
  <rect x="382.2" y="185.2" width="63.6" height="4.1" shape-rendering="crispEdges" style="fill:var(--danger);fill-opacity:0.45"/>
  <rect x="28.8" y="188.8" width="4.1" height="4.1" shape-rendering="crispEdges" style="fill:var(--task);fill-opacity:0.55"/>
  <rect x="32.2" y="188.8" width="74.1" height="4.1" shape-rendering="crispEdges" style="fill:var(--danger);fill-opacity:0.45"/>
  <rect x="105.8" y="188.8" width="235.1" height="4.1" shape-rendering="crispEdges" style="fill:var(--accent);fill-opacity:0.55"/>
  <rect x="340.2" y="188.8" width="39.1" height="4.1" shape-rendering="crispEdges" style="fill:var(--warn);fill-opacity:0.55"/>
  <rect x="378.8" y="188.8" width="4.1" height="4.1" shape-rendering="crispEdges" style="fill:var(--accent);fill-opacity:0.55"/>
  <rect x="382.2" y="188.8" width="63.6" height="4.1" shape-rendering="crispEdges" style="fill:var(--danger);fill-opacity:0.45"/>
  <rect x="32.2" y="192.2" width="74.1" height="4.1" shape-rendering="crispEdges" style="fill:var(--danger);fill-opacity:0.45"/>
  <rect x="105.8" y="192.2" width="277.1" height="4.1" shape-rendering="crispEdges" style="fill:var(--accent);fill-opacity:0.55"/>
  <rect x="382.2" y="192.2" width="60.1" height="4.1" shape-rendering="crispEdges" style="fill:var(--danger);fill-opacity:0.45"/>
  <rect x="32.2" y="195.8" width="4.1" height="4.1" shape-rendering="crispEdges" style="fill:var(--task);fill-opacity:0.55"/>
  <rect x="35.8" y="195.8" width="70.6" height="4.1" shape-rendering="crispEdges" style="fill:var(--danger);fill-opacity:0.45"/>
  <rect x="105.8" y="195.8" width="277.1" height="4.1" shape-rendering="crispEdges" style="fill:var(--accent);fill-opacity:0.55"/>
  <rect x="382.2" y="195.8" width="60.1" height="4.1" shape-rendering="crispEdges" style="fill:var(--danger);fill-opacity:0.45"/>
  <rect x="35.8" y="199.2" width="4.1" height="4.1" shape-rendering="crispEdges" style="fill:var(--task);fill-opacity:0.55"/>
  <rect x="39.2" y="199.2" width="67.1" height="4.1" shape-rendering="crispEdges" style="fill:var(--danger);fill-opacity:0.45"/>
  <rect x="105.8" y="199.2" width="277.1" height="4.1" shape-rendering="crispEdges" style="fill:var(--accent);fill-opacity:0.55"/>
  <rect x="382.2" y="199.2" width="56.6" height="4.1" shape-rendering="crispEdges" style="fill:var(--danger);fill-opacity:0.45"/>
  <rect x="35.8" y="202.8" width="4.1" height="4.1" shape-rendering="crispEdges" style="fill:var(--task);fill-opacity:0.55"/>
  <rect x="39.2" y="202.8" width="67.1" height="4.1" shape-rendering="crispEdges" style="fill:var(--danger);fill-opacity:0.45"/>
  <rect x="105.8" y="202.8" width="277.1" height="4.1" shape-rendering="crispEdges" style="fill:var(--accent);fill-opacity:0.55"/>
  <rect x="382.2" y="202.8" width="56.6" height="4.1" shape-rendering="crispEdges" style="fill:var(--danger);fill-opacity:0.45"/>
  <rect x="39.2" y="206.2" width="4.1" height="4.1" shape-rendering="crispEdges" style="fill:var(--task);fill-opacity:0.55"/>
  <rect x="42.8" y="206.2" width="63.6" height="4.1" shape-rendering="crispEdges" style="fill:var(--danger);fill-opacity:0.45"/>
  <rect x="105.8" y="206.2" width="277.1" height="4.1" shape-rendering="crispEdges" style="fill:var(--accent);fill-opacity:0.55"/>
  <rect x="382.2" y="206.2" width="53.1" height="4.1" shape-rendering="crispEdges" style="fill:var(--danger);fill-opacity:0.45"/>
  <rect x="42.8" y="209.8" width="4.1" height="4.1" shape-rendering="crispEdges" style="fill:var(--task);fill-opacity:0.55"/>
  <rect x="46.2" y="209.8" width="60.1" height="4.1" shape-rendering="crispEdges" style="fill:var(--danger);fill-opacity:0.45"/>
  <rect x="105.8" y="209.8" width="277.1" height="4.1" shape-rendering="crispEdges" style="fill:var(--accent);fill-opacity:0.55"/>
  <rect x="382.2" y="209.8" width="53.1" height="4.1" shape-rendering="crispEdges" style="fill:var(--danger);fill-opacity:0.45"/>
  <rect x="46.2" y="213.2" width="60.1" height="4.1" shape-rendering="crispEdges" style="fill:var(--danger);fill-opacity:0.45"/>
  <rect x="105.8" y="213.2" width="277.1" height="4.1" shape-rendering="crispEdges" style="fill:var(--accent);fill-opacity:0.55"/>
  <rect x="382.2" y="213.2" width="49.6" height="4.1" shape-rendering="crispEdges" style="fill:var(--danger);fill-opacity:0.45"/>
  <rect x="46.2" y="216.8" width="4.1" height="4.1" shape-rendering="crispEdges" style="fill:var(--task);fill-opacity:0.55"/>
  <rect x="49.8" y="216.8" width="56.6" height="4.1" shape-rendering="crispEdges" style="fill:var(--danger);fill-opacity:0.45"/>
  <rect x="105.8" y="216.8" width="277.1" height="4.1" shape-rendering="crispEdges" style="fill:var(--accent);fill-opacity:0.55"/>
  <rect x="382.2" y="216.8" width="49.6" height="4.1" shape-rendering="crispEdges" style="fill:var(--danger);fill-opacity:0.45"/>
  <rect x="49.8" y="220.2" width="4.1" height="4.1" shape-rendering="crispEdges" style="fill:var(--task);fill-opacity:0.55"/>
  <rect x="53.2" y="220.2" width="53.1" height="4.1" shape-rendering="crispEdges" style="fill:var(--danger);fill-opacity:0.45"/>
  <rect x="105.8" y="220.2" width="277.1" height="4.1" shape-rendering="crispEdges" style="fill:var(--accent);fill-opacity:0.55"/>
  <rect x="382.2" y="220.2" width="46.1" height="4.1" shape-rendering="crispEdges" style="fill:var(--danger);fill-opacity:0.45"/>
  <rect x="53.2" y="223.8" width="4.1" height="4.1" shape-rendering="crispEdges" style="fill:var(--task);fill-opacity:0.55"/>
  <rect x="56.8" y="223.8" width="49.6" height="4.1" shape-rendering="crispEdges" style="fill:var(--danger);fill-opacity:0.45"/>
  <rect x="105.8" y="223.8" width="4.1" height="4.1" shape-rendering="crispEdges" style="fill:var(--warn);fill-opacity:0.55"/>
  <rect x="109.2" y="223.8" width="273.6" height="4.1" shape-rendering="crispEdges" style="fill:var(--accent);fill-opacity:0.55"/>
  <rect x="382.2" y="223.8" width="42.6" height="4.1" shape-rendering="crispEdges" style="fill:var(--danger);fill-opacity:0.45"/>
  <rect x="56.8" y="227.2" width="49.6" height="4.1" shape-rendering="crispEdges" style="fill:var(--danger);fill-opacity:0.45"/>
  <rect x="105.8" y="227.2" width="4.1" height="4.1" shape-rendering="crispEdges" style="fill:var(--warn);fill-opacity:0.55"/>
  <rect x="109.2" y="227.2" width="273.6" height="4.1" shape-rendering="crispEdges" style="fill:var(--accent);fill-opacity:0.55"/>
  <rect x="382.2" y="227.2" width="42.6" height="4.1" shape-rendering="crispEdges" style="fill:var(--danger);fill-opacity:0.45"/>
  <rect x="56.8" y="230.8" width="4.1" height="4.1" shape-rendering="crispEdges" style="fill:var(--task);fill-opacity:0.55"/>
  <rect x="60.2" y="230.8" width="46.1" height="4.1" shape-rendering="crispEdges" style="fill:var(--danger);fill-opacity:0.45"/>
  <rect x="105.8" y="230.8" width="7.6" height="4.1" shape-rendering="crispEdges" style="fill:var(--warn);fill-opacity:0.55"/>
  <rect x="112.8" y="230.8" width="270.1" height="4.1" shape-rendering="crispEdges" style="fill:var(--accent);fill-opacity:0.55"/>
  <rect x="382.2" y="230.8" width="39.1" height="4.1" shape-rendering="crispEdges" style="fill:var(--danger);fill-opacity:0.45"/>
  <rect x="60.2" y="234.2" width="4.1" height="4.1" shape-rendering="crispEdges" style="fill:var(--task);fill-opacity:0.55"/>
  <rect x="63.8" y="234.2" width="42.6" height="4.1" shape-rendering="crispEdges" style="fill:var(--danger);fill-opacity:0.45"/>
  <rect x="105.8" y="234.2" width="7.6" height="4.1" shape-rendering="crispEdges" style="fill:var(--warn);fill-opacity:0.55"/>
  <rect x="112.8" y="234.2" width="270.1" height="4.1" shape-rendering="crispEdges" style="fill:var(--accent);fill-opacity:0.55"/>
  <rect x="382.2" y="234.2" width="35.6" height="4.1" shape-rendering="crispEdges" style="fill:var(--danger);fill-opacity:0.45"/>
  <rect x="63.8" y="237.8" width="4.1" height="4.1" shape-rendering="crispEdges" style="fill:var(--task);fill-opacity:0.55"/>
  <rect x="67.2" y="237.8" width="39.1" height="4.1" shape-rendering="crispEdges" style="fill:var(--danger);fill-opacity:0.45"/>
  <rect x="105.8" y="237.8" width="11.1" height="4.1" shape-rendering="crispEdges" style="fill:var(--warn);fill-opacity:0.55"/>
  <rect x="116.2" y="237.8" width="266.6" height="4.1" shape-rendering="crispEdges" style="fill:var(--accent);fill-opacity:0.55"/>
  <rect x="382.2" y="237.8" width="35.6" height="4.1" shape-rendering="crispEdges" style="fill:var(--danger);fill-opacity:0.45"/>
  <rect x="67.2" y="241.2" width="4.1" height="4.1" shape-rendering="crispEdges" style="fill:var(--task);fill-opacity:0.55"/>
  <rect x="70.8" y="241.2" width="35.6" height="4.1" shape-rendering="crispEdges" style="fill:var(--danger);fill-opacity:0.45"/>
  <rect x="105.8" y="241.2" width="14.6" height="4.1" shape-rendering="crispEdges" style="fill:var(--warn);fill-opacity:0.55"/>
  <rect x="119.8" y="241.2" width="263.1" height="4.1" shape-rendering="crispEdges" style="fill:var(--accent);fill-opacity:0.55"/>
  <rect x="382.2" y="241.2" width="32.1" height="4.1" shape-rendering="crispEdges" style="fill:var(--danger);fill-opacity:0.45"/>
  <rect x="70.8" y="244.8" width="4.1" height="4.1" shape-rendering="crispEdges" style="fill:var(--task);fill-opacity:0.55"/>
  <rect x="74.2" y="244.8" width="32.1" height="4.1" shape-rendering="crispEdges" style="fill:var(--danger);fill-opacity:0.45"/>
  <rect x="105.8" y="244.8" width="14.6" height="4.1" shape-rendering="crispEdges" style="fill:var(--warn);fill-opacity:0.55"/>
  <rect x="119.8" y="244.8" width="263.1" height="4.1" shape-rendering="crispEdges" style="fill:var(--accent);fill-opacity:0.55"/>
  <rect x="382.2" y="244.8" width="28.6" height="4.1" shape-rendering="crispEdges" style="fill:var(--danger);fill-opacity:0.45"/>
  <rect x="74.2" y="248.2" width="4.1" height="4.1" shape-rendering="crispEdges" style="fill:var(--task);fill-opacity:0.55"/>
  <rect x="77.8" y="248.2" width="28.6" height="4.1" shape-rendering="crispEdges" style="fill:var(--danger);fill-opacity:0.45"/>
  <rect x="105.8" y="248.2" width="18.1" height="4.1" shape-rendering="crispEdges" style="fill:var(--warn);fill-opacity:0.55"/>
  <rect x="123.2" y="248.2" width="259.6" height="4.1" shape-rendering="crispEdges" style="fill:var(--accent);fill-opacity:0.55"/>
  <rect x="382.2" y="248.2" width="25.1" height="4.1" shape-rendering="crispEdges" style="fill:var(--danger);fill-opacity:0.45"/>
  <rect x="77.8" y="251.8" width="4.1" height="4.1" shape-rendering="crispEdges" style="fill:var(--task);fill-opacity:0.55"/>
  <rect x="81.2" y="251.8" width="25.1" height="4.1" shape-rendering="crispEdges" style="fill:var(--danger);fill-opacity:0.45"/>
  <rect x="105.8" y="251.8" width="21.6" height="4.1" shape-rendering="crispEdges" style="fill:var(--warn);fill-opacity:0.55"/>
  <rect x="126.8" y="251.8" width="256.1" height="4.1" shape-rendering="crispEdges" style="fill:var(--accent);fill-opacity:0.55"/>
  <rect x="382.2" y="251.8" width="25.1" height="4.1" shape-rendering="crispEdges" style="fill:var(--danger);fill-opacity:0.45"/>
  <rect x="81.2" y="255.2" width="4.1" height="4.1" shape-rendering="crispEdges" style="fill:var(--task);fill-opacity:0.55"/>
  <rect x="84.8" y="255.2" width="21.6" height="4.1" shape-rendering="crispEdges" style="fill:var(--danger);fill-opacity:0.45"/>
  <rect x="105.8" y="255.2" width="21.6" height="4.1" shape-rendering="crispEdges" style="fill:var(--warn);fill-opacity:0.55"/>
  <rect x="126.8" y="255.2" width="252.6" height="4.1" shape-rendering="crispEdges" style="fill:var(--accent);fill-opacity:0.55"/>
  <rect x="378.8" y="255.2" width="4.1" height="4.1" shape-rendering="crispEdges" style="fill:var(--warn);fill-opacity:0.55"/>
  <rect x="382.2" y="255.2" width="21.6" height="4.1" shape-rendering="crispEdges" style="fill:var(--danger);fill-opacity:0.45"/>
  <rect x="84.8" y="258.8" width="4.1" height="4.1" shape-rendering="crispEdges" style="fill:var(--task);fill-opacity:0.55"/>
  <rect x="88.2" y="258.8" width="18.1" height="4.1" shape-rendering="crispEdges" style="fill:var(--danger);fill-opacity:0.45"/>
  <rect x="105.8" y="258.8" width="25.1" height="4.1" shape-rendering="crispEdges" style="fill:var(--warn);fill-opacity:0.55"/>
  <rect x="130.2" y="258.8" width="245.6" height="4.1" shape-rendering="crispEdges" style="fill:var(--accent);fill-opacity:0.55"/>
  <rect x="375.2" y="258.8" width="7.6" height="4.1" shape-rendering="crispEdges" style="fill:var(--warn);fill-opacity:0.55"/>
  <rect x="382.2" y="258.8" width="18.1" height="4.1" shape-rendering="crispEdges" style="fill:var(--danger);fill-opacity:0.45"/>
  <rect x="88.2" y="262.2" width="4.1" height="4.1" shape-rendering="crispEdges" style="fill:var(--task);fill-opacity:0.55"/>
  <rect x="91.8" y="262.2" width="14.6" height="4.1" shape-rendering="crispEdges" style="fill:var(--danger);fill-opacity:0.45"/>
  <rect x="105.8" y="262.2" width="28.6" height="4.1" shape-rendering="crispEdges" style="fill:var(--warn);fill-opacity:0.55"/>
  <rect x="133.8" y="262.2" width="242.1" height="4.1" shape-rendering="crispEdges" style="fill:var(--accent);fill-opacity:0.55"/>
  <rect x="375.2" y="262.2" width="7.6" height="4.1" shape-rendering="crispEdges" style="fill:var(--warn);fill-opacity:0.55"/>
  <rect x="382.2" y="262.2" width="14.6" height="4.1" shape-rendering="crispEdges" style="fill:var(--danger);fill-opacity:0.45"/>
  <rect x="91.8" y="265.8" width="4.1" height="4.1" shape-rendering="crispEdges" style="fill:var(--task);fill-opacity:0.55"/>
  <rect x="95.2" y="265.8" width="11.1" height="4.1" shape-rendering="crispEdges" style="fill:var(--danger);fill-opacity:0.45"/>
  <rect x="105.8" y="265.8" width="32.1" height="4.1" shape-rendering="crispEdges" style="fill:var(--warn);fill-opacity:0.55"/>
  <rect x="137.2" y="265.8" width="235.1" height="4.1" shape-rendering="crispEdges" style="fill:var(--accent);fill-opacity:0.55"/>
  <rect x="371.8" y="265.8" width="11.1" height="4.1" shape-rendering="crispEdges" style="fill:var(--warn);fill-opacity:0.55"/>
  <rect x="382.2" y="265.8" width="11.1" height="4.1" shape-rendering="crispEdges" style="fill:var(--danger);fill-opacity:0.45"/>
  <rect x="95.2" y="269.2" width="4.1" height="4.1" shape-rendering="crispEdges" style="fill:var(--task);fill-opacity:0.55"/>
  <rect x="98.8" y="269.2" width="7.6" height="4.1" shape-rendering="crispEdges" style="fill:var(--danger);fill-opacity:0.45"/>
  <rect x="105.8" y="269.2" width="35.6" height="4.1" shape-rendering="crispEdges" style="fill:var(--warn);fill-opacity:0.55"/>
  <rect x="140.8" y="269.2" width="228.1" height="4.1" shape-rendering="crispEdges" style="fill:var(--accent);fill-opacity:0.55"/>
  <rect x="368.2" y="269.2" width="14.6" height="4.1" shape-rendering="crispEdges" style="fill:var(--warn);fill-opacity:0.55"/>
  <rect x="382.2" y="269.2" width="7.6" height="4.1" shape-rendering="crispEdges" style="fill:var(--danger);fill-opacity:0.45"/>
  <rect x="102.2" y="272.8" width="4.1" height="4.1" shape-rendering="crispEdges" style="fill:var(--task);fill-opacity:0.55"/>
  <rect x="105.8" y="272.8" width="39.1" height="4.1" shape-rendering="crispEdges" style="fill:var(--warn);fill-opacity:0.55"/>
  <rect x="144.2" y="272.8" width="221.1" height="4.1" shape-rendering="crispEdges" style="fill:var(--accent);fill-opacity:0.55"/>
  <rect x="364.8" y="272.8" width="18.1" height="4.1" shape-rendering="crispEdges" style="fill:var(--warn);fill-opacity:0.55"/>
  <rect x="382.2" y="272.8" width="4.1" height="4.1" shape-rendering="crispEdges" style="fill:var(--danger);fill-opacity:0.45"/>
  <rect x="105.8" y="276.2" width="4.1" height="4.1" shape-rendering="crispEdges" style="fill:var(--task);fill-opacity:0.55"/>
  <rect x="109.2" y="276.2" width="39.1" height="4.1" shape-rendering="crispEdges" style="fill:var(--warn);fill-opacity:0.55"/>
  <rect x="147.8" y="276.2" width="214.1" height="4.1" shape-rendering="crispEdges" style="fill:var(--accent);fill-opacity:0.55"/>
  <rect x="361.2" y="276.2" width="21.6" height="4.1" shape-rendering="crispEdges" style="fill:var(--warn);fill-opacity:0.55"/>
  <rect x="109.2" y="279.8" width="4.1" height="4.1" shape-rendering="crispEdges" style="fill:var(--task);fill-opacity:0.55"/>
  <rect x="112.8" y="279.8" width="39.1" height="4.1" shape-rendering="crispEdges" style="fill:var(--warn);fill-opacity:0.55"/>
  <rect x="151.2" y="279.8" width="207.1" height="4.1" shape-rendering="crispEdges" style="fill:var(--accent);fill-opacity:0.55"/>
  <rect x="357.8" y="279.8" width="21.6" height="4.1" shape-rendering="crispEdges" style="fill:var(--warn);fill-opacity:0.55"/>
  <rect x="116.2" y="283.2" width="4.1" height="4.1" shape-rendering="crispEdges" style="fill:var(--task);fill-opacity:0.55"/>
  <rect x="119.8" y="283.2" width="35.6" height="4.1" shape-rendering="crispEdges" style="fill:var(--warn);fill-opacity:0.55"/>
  <rect x="154.8" y="283.2" width="200.1" height="4.1" shape-rendering="crispEdges" style="fill:var(--accent);fill-opacity:0.55"/>
  <rect x="354.2" y="283.2" width="18.1" height="4.1" shape-rendering="crispEdges" style="fill:var(--warn);fill-opacity:0.55"/>
  <rect x="119.8" y="286.8" width="4.1" height="4.1" shape-rendering="crispEdges" style="fill:var(--task);fill-opacity:0.55"/>
  <rect x="123.2" y="286.8" width="35.6" height="4.1" shape-rendering="crispEdges" style="fill:var(--warn);fill-opacity:0.55"/>
  <rect x="158.2" y="286.8" width="193.1" height="4.1" shape-rendering="crispEdges" style="fill:var(--accent);fill-opacity:0.55"/>
  <rect x="350.8" y="286.8" width="18.1" height="4.1" shape-rendering="crispEdges" style="fill:var(--warn);fill-opacity:0.55"/>
  <rect x="123.2" y="290.2" width="7.6" height="4.1" shape-rendering="crispEdges" style="fill:var(--task);fill-opacity:0.55"/>
  <rect x="130.2" y="290.2" width="32.1" height="4.1" shape-rendering="crispEdges" style="fill:var(--warn);fill-opacity:0.55"/>
  <rect x="161.8" y="290.2" width="182.6" height="4.1" shape-rendering="crispEdges" style="fill:var(--accent);fill-opacity:0.55"/>
  <rect x="343.8" y="290.2" width="21.6" height="4.1" shape-rendering="crispEdges" style="fill:var(--warn);fill-opacity:0.55"/>
  <rect x="130.2" y="293.8" width="4.1" height="4.1" shape-rendering="crispEdges" style="fill:var(--task);fill-opacity:0.55"/>
  <rect x="133.8" y="293.8" width="32.1" height="4.1" shape-rendering="crispEdges" style="fill:var(--warn);fill-opacity:0.55"/>
  <rect x="165.2" y="293.8" width="175.6" height="4.1" shape-rendering="crispEdges" style="fill:var(--accent);fill-opacity:0.55"/>
  <rect x="340.2" y="293.8" width="21.6" height="4.1" shape-rendering="crispEdges" style="fill:var(--warn);fill-opacity:0.55"/>
  <rect x="137.2" y="297.2" width="4.1" height="4.1" shape-rendering="crispEdges" style="fill:var(--task);fill-opacity:0.55"/>
  <rect x="140.8" y="297.2" width="28.6" height="4.1" shape-rendering="crispEdges" style="fill:var(--warn);fill-opacity:0.55"/>
  <rect x="168.8" y="297.2" width="168.6" height="4.1" shape-rendering="crispEdges" style="fill:var(--accent);fill-opacity:0.55"/>
  <rect x="336.8" y="297.2" width="18.1" height="4.1" shape-rendering="crispEdges" style="fill:var(--warn);fill-opacity:0.55"/>
  <rect x="140.8" y="300.8" width="7.6" height="4.1" shape-rendering="crispEdges" style="fill:var(--task);fill-opacity:0.55"/>
  <rect x="147.8" y="300.8" width="28.6" height="4.1" shape-rendering="crispEdges" style="fill:var(--warn);fill-opacity:0.55"/>
  <rect x="175.8" y="300.8" width="154.6" height="4.1" shape-rendering="crispEdges" style="fill:var(--accent);fill-opacity:0.55"/>
  <rect x="329.8" y="300.8" width="21.6" height="4.1" shape-rendering="crispEdges" style="fill:var(--warn);fill-opacity:0.55"/>
  <rect x="147.8" y="304.2" width="7.6" height="4.1" shape-rendering="crispEdges" style="fill:var(--task);fill-opacity:0.55"/>
  <rect x="154.8" y="304.2" width="25.1" height="4.1" shape-rendering="crispEdges" style="fill:var(--warn);fill-opacity:0.55"/>
  <rect x="179.2" y="304.2" width="147.6" height="4.1" shape-rendering="crispEdges" style="fill:var(--accent);fill-opacity:0.55"/>
  <rect x="326.2" y="304.2" width="18.1" height="4.1" shape-rendering="crispEdges" style="fill:var(--warn);fill-opacity:0.55"/>
  <rect x="154.8" y="307.8" width="7.6" height="4.1" shape-rendering="crispEdges" style="fill:var(--task);fill-opacity:0.55"/>
  <rect x="161.8" y="307.8" width="25.1" height="4.1" shape-rendering="crispEdges" style="fill:var(--warn);fill-opacity:0.55"/>
  <rect x="186.2" y="307.8" width="133.6" height="4.1" shape-rendering="crispEdges" style="fill:var(--accent);fill-opacity:0.55"/>
  <rect x="319.2" y="307.8" width="18.1" height="4.1" shape-rendering="crispEdges" style="fill:var(--warn);fill-opacity:0.55"/>
  <rect x="161.8" y="311.2" width="7.6" height="4.1" shape-rendering="crispEdges" style="fill:var(--task);fill-opacity:0.55"/>
  <rect x="168.8" y="311.2" width="25.1" height="4.1" shape-rendering="crispEdges" style="fill:var(--warn);fill-opacity:0.55"/>
  <rect x="193.2" y="311.2" width="119.6" height="4.1" shape-rendering="crispEdges" style="fill:var(--accent);fill-opacity:0.55"/>
  <rect x="312.2" y="311.2" width="18.1" height="4.1" shape-rendering="crispEdges" style="fill:var(--warn);fill-opacity:0.55"/>
  <rect x="172.2" y="314.8" width="4.1" height="4.1" shape-rendering="crispEdges" style="fill:var(--task);fill-opacity:0.55"/>
  <rect x="175.8" y="314.8" width="21.6" height="4.1" shape-rendering="crispEdges" style="fill:var(--warn);fill-opacity:0.55"/>
  <rect x="196.8" y="314.8" width="109.1" height="4.1" shape-rendering="crispEdges" style="fill:var(--accent);fill-opacity:0.55"/>
  <rect x="305.2" y="314.8" width="18.1" height="4.1" shape-rendering="crispEdges" style="fill:var(--warn);fill-opacity:0.55"/>
  <rect x="179.2" y="318.2" width="7.6" height="4.1" shape-rendering="crispEdges" style="fill:var(--task);fill-opacity:0.55"/>
  <rect x="186.2" y="318.2" width="18.1" height="4.1" shape-rendering="crispEdges" style="fill:var(--warn);fill-opacity:0.55"/>
  <rect x="203.8" y="318.2" width="95.1" height="4.1" shape-rendering="crispEdges" style="fill:var(--accent);fill-opacity:0.55"/>
  <rect x="298.2" y="318.2" width="18.1" height="4.1" shape-rendering="crispEdges" style="fill:var(--warn);fill-opacity:0.55"/>
  <rect x="189.8" y="321.8" width="7.6" height="4.1" shape-rendering="crispEdges" style="fill:var(--task);fill-opacity:0.55"/>
  <rect x="196.8" y="321.8" width="18.1" height="4.1" shape-rendering="crispEdges" style="fill:var(--warn);fill-opacity:0.55"/>
  <rect x="214.2" y="321.8" width="74.1" height="4.1" shape-rendering="crispEdges" style="fill:var(--accent);fill-opacity:0.55"/>
  <rect x="287.8" y="321.8" width="21.6" height="4.1" shape-rendering="crispEdges" style="fill:var(--warn);fill-opacity:0.55"/>
  <rect x="200.2" y="325.2" width="7.6" height="4.1" shape-rendering="crispEdges" style="fill:var(--task);fill-opacity:0.55"/>
  <rect x="207.2" y="325.2" width="14.6" height="4.1" shape-rendering="crispEdges" style="fill:var(--warn);fill-opacity:0.55"/>
  <rect x="221.2" y="325.2" width="56.6" height="4.1" shape-rendering="crispEdges" style="fill:var(--accent);fill-opacity:0.55"/>
  <rect x="277.2" y="325.2" width="18.1" height="4.1" shape-rendering="crispEdges" style="fill:var(--warn);fill-opacity:0.55"/>
  <rect x="294.8" y="325.2" width="4.1" height="4.1" shape-rendering="crispEdges" style="fill:var(--task);fill-opacity:0.55"/>
  <rect x="210.8" y="328.8" width="7.6" height="4.1" shape-rendering="crispEdges" style="fill:var(--task);fill-opacity:0.55"/>
  <rect x="217.8" y="328.8" width="14.6" height="4.1" shape-rendering="crispEdges" style="fill:var(--warn);fill-opacity:0.55"/>
  <rect x="231.8" y="328.8" width="32.1" height="4.1" shape-rendering="crispEdges" style="fill:var(--accent);fill-opacity:0.55"/>
  <rect x="263.2" y="328.8" width="18.1" height="4.1" shape-rendering="crispEdges" style="fill:var(--warn);fill-opacity:0.55"/>
  <rect x="280.8" y="328.8" width="4.1" height="4.1" shape-rendering="crispEdges" style="fill:var(--task);fill-opacity:0.55"/>
  <rect x="224.8" y="332.2" width="11.1" height="4.1" shape-rendering="crispEdges" style="fill:var(--task);fill-opacity:0.55"/>
  <rect x="235.2" y="332.2" width="7.6" height="4.1" shape-rendering="crispEdges" style="fill:var(--warn);fill-opacity:0.55"/>
  <rect x="242.2" y="332.2" width="4.1" height="4.1" shape-rendering="crispEdges" style="fill:var(--accent);fill-opacity:0.55"/>
  <rect x="245.8" y="332.2" width="11.1" height="4.1" shape-rendering="crispEdges" style="fill:var(--warn);fill-opacity:0.55"/>
  <rect x="256.2" y="332.2" width="14.6" height="4.1" shape-rendering="crispEdges" style="fill:var(--task);fill-opacity:0.55"/>
  <rect x="242.2" y="335.8" width="4.1" height="4.1" shape-rendering="crispEdges" style="fill:var(--task);fill-opacity:0.55"/>
  <path class="ln" d="M20 40 L468 40" stroke-width="1"/>
  <text class="tag" x="20" y="32" text-anchor="start">z = 0 (모터축 평면)</text>
  <path class="ln" d="M244 40 L244 355" stroke-width="1" stroke-dasharray="5 4"/>
  <path style="fill:none;stroke:var(--text)" d="M135.2 198 L352.8 198 L352.8 265.8 L135.2 265.8 Z" stroke-width="2.2"/>
  <text class="sub" x="260" y="473" text-anchor="start">굵은 사각형: 작업 실린더 D 311 × H 97 mm (work_cylinder, H = 0.1 m)</text>
  <rect x="40" y="395" width="18" height="14" shape-rendering="crispEdges" style="fill:var(--accent);fill-opacity:0.55"/>
  <text class="sub" x="66" y="407" text-anchor="start">사용 가능</text>
  <rect x="40" y="417" width="18" height="14" shape-rendering="crispEdges" style="fill:var(--warn);fill-opacity:0.55"/>
  <text class="sub" x="66" y="429" text-anchor="start">모터각 한계 초과</text>
  <rect x="40" y="439" width="18" height="14" shape-rendering="crispEdges" style="fill:var(--danger);fill-opacity:0.45"/>
  <text class="sub" x="66" y="451" text-anchor="start">볼조인트 각 초과</text>
  <rect x="40" y="461" width="18" height="14" shape-rendering="crispEdges" style="fill:var(--task);fill-opacity:0.55"/>
  <text class="sub" x="66" y="473" text-anchor="start">팔꿈치 각 초과</text>
  <text class="sub" x="260" y="407" text-anchor="start">빈칸: 팔 길이로 닿지 않음 (Unreachable)</text>
  <text class="sub" x="260" y="429" text-anchor="start">edu_dynamixel, 이펙터 중심 좌표, 칸 5 mm</text>
  <text class="sub" x="260" y="451" text-anchor="start">x &gt; 0 쪽이 팔 1 방향 (φ = 0°)</text>
</svg>
